<svg xmlns="http://www.w3.org/2000/svg" width="636.8" height="560.0" xmlns:xlink="http://www.w3.org/1999/xlink"><rect x="0" y="0.0" width="636.8" height="560.0" fill="#ffffff" /><text x="20.0" y="40.0" font-size="16px" dominant-baseline="middle" text-anchor="start" font-family="Arial" font-weight="normal" fill="#252b3a" >q0: </text><text x="20.0" y="100.0" font-size="16px" dominant-baseline="middle" text-anchor="start" font-family="Arial" font-weight="normal" fill="#252b3a" >q1: </text><text x="20.0" y="160.0" font-size="16px" dominant-baseline="middle" text-anchor="start" font-family="Arial" font-weight="normal" fill="#252b3a" >q2: </text><text x="20.0" y="220.0" font-size="16px" dominant-baseline="middle" text-anchor="start" font-family="Arial" font-weight="normal" fill="#252b3a" >q3: </text><text x="20.0" y="280.0" font-size="16px" dominant-baseline="middle" text-anchor="start" font-family="Arial" font-weight="normal" fill="#252b3a" >q4: </text><text x="20.0" y="340.0" font-size="16px" dominant-baseline="middle" text-anchor="start" font-family="Arial" font-weight="normal" fill="#252b3a" >q5: </text><text x="20.0" y="400.0" font-size="16px" dominant-baseline="middle" text-anchor="start" font-family="Arial" font-weight="normal" fill="#252b3a" >q6: </text><text x="20.0" y="460.0" font-size="16px" dominant-baseline="middle" text-anchor="start" font-family="Arial" font-weight="normal" fill="#252b3a" >q7: </text><text x="20.0" y="520.0" font-size="16px" dominant-baseline="middle" text-anchor="start" font-family="Arial" font-weight="normal" fill="#252b3a" >q8: </text><line x1="48.8" x2="616.8" y1="40.0" y2="40.0" stroke="#adb0b8" stroke-width="1" /><line x1="48.8" x2="616.8" y1="100.0" y2="100.0" stroke="#adb0b8" stroke-width="1" /><line x1="48.8" x2="616.8" y1="160.0" y2="160.0" stroke="#adb0b8" stroke-width="1" /><line x1="48.8" x2="616.8" y1="220.0" y2="220.0" stroke="#adb0b8" stroke-width="1" /><line x1="48.8" x2="616.8" y1="280.0" y2="280.0" stroke="#adb0b8" stroke-width="1" /><line x1="48.8" x2="616.8" y1="340.0" y2="340.0" stroke="#adb0b8" stroke-width="1" /><line x1="48.8" x2="616.8" y1="400.0" y2="400.0" stroke="#adb0b8" stroke-width="1" /><line x1="48.8" x2="616.8" y1="460.0" y2="460.0" stroke="#adb0b8" stroke-width="1" /><line x1="48.8" x2="616.8" y1="520.0" y2="520.0" stroke="#adb0b8" stroke-width="1" /><rect x="72.8" y="20.0" width="40.0" height="40" rx="4" ry="4" stroke="#ffffff" stroke-width="0" fill="#5e7ce0" fill-opacity="1" /><text x="92.8" y="40.0" font-size="20px" dominant-baseline="middle" text-anchor="middle" font-family="Arial" font-weight="normal" fill="#ffffff" >H </text><circle cx="152.8" cy="40.0" r="4" fill="#16acff" /><line x1="152.8" x2="152.8" y1="40.0" y2="100.0" stroke="#16acff" stroke-width="3" /><rect x="132.8" y="80.0" width="40" height="40" rx="4" ry="4" stroke="#ffffff" stroke-width="0" fill="#16acff" fill-opacity="1" /><line x1="138.8" x2="166.8" y1="100.0" y2="100.0" stroke="#ffffff" stroke-width="4" /><line x1="152.8" x2="152.8" y1="86.0" y2="114.0" stroke="#ffffff" stroke-width="4" /><circle cx="212.8" cy="100.0" r="4" fill="#16acff" /><line x1="212.8" x2="212.8" y1="100.0" y2="160.0" stroke="#16acff" stroke-width="3" /><rect x="192.8" y="140.0" width="40" height="40" rx="4" ry="4" stroke="#ffffff" stroke-width="0" fill="#16acff" fill-opacity="1" /><line x1="198.8" x2="226.8" y1="160.0" y2="160.0" stroke="#ffffff" stroke-width="4" /><line x1="212.8" x2="212.8" y1="146.0" y2="174.0" stroke="#ffffff" stroke-width="4" /><circle cx="272.8" cy="160.0" r="4" fill="#16acff" /><line x1="272.8" x2="272.8" y1="160.0" y2="220.0" stroke="#16acff" stroke-width="3" /><rect x="252.8" y="200.0" width="40" height="40" rx="4" ry="4" stroke="#ffffff" stroke-width="0" fill="#16acff" fill-opacity="1" /><line x1="258.8" x2="286.8" y1="220.0" y2="220.0" stroke="#ffffff" stroke-width="4" /><line x1="272.8" x2="272.8" y1="206.0" y2="234.0" stroke="#ffffff" stroke-width="4" /><circle cx="332.8" cy="220.0" r="4" fill="#16acff" /><line x1="332.8" x2="332.8" y1="220.0" y2="280.0" stroke="#16acff" stroke-width="3" /><rect x="312.8" y="260.0" width="40" height="40" rx="4" ry="4" stroke="#ffffff" stroke-width="0" fill="#16acff" fill-opacity="1" /><line x1="318.8" x2="346.8" y1="280.0" y2="280.0" stroke="#ffffff" stroke-width="4" /><line x1="332.8" x2="332.8" y1="266.0" y2="294.0" stroke="#ffffff" stroke-width="4" /><circle cx="392.8" cy="280.0" r="4" fill="#16acff" /><line x1="392.8" x2="392.8" y1="280.0" y2="340.0" stroke="#16acff" stroke-width="3" /><rect x="372.8" y="320.0" width="40" height="40" rx="4" ry="4" stroke="#ffffff" stroke-width="0" fill="#16acff" fill-opacity="1" /><line x1="378.8" x2="406.8" y1="340.0" y2="340.0" stroke="#ffffff" stroke-width="4" /><line x1="392.8" x2="392.8" y1="326.0" y2="354.0" stroke="#ffffff" stroke-width="4" /><circle cx="452.8" cy="340.0" r="4" fill="#16acff" /><line x1="452.8" x2="452.8" y1="340.0" y2="400.0" stroke="#16acff" stroke-width="3" /><rect x="432.8" y="380.0" width="40" height="40" rx="4" ry="4" stroke="#ffffff" stroke-width="0" fill="#16acff" fill-opacity="1" /><line x1="438.8" x2="466.8" y1="400.0" y2="400.0" stroke="#ffffff" stroke-width="4" /><line x1="452.8" x2="452.8" y1="386.0" y2="414.0" stroke="#ffffff" stroke-width="4" /><circle cx="512.8" cy="400.0" r="4" fill="#16acff" /><line x1="512.8" x2="512.8" y1="400.0" y2="460.0" stroke="#16acff" stroke-width="3" /><rect x="492.8" y="440.0" width="40" height="40" rx="4" ry="4" stroke="#ffffff" stroke-width="0" fill="#16acff" fill-opacity="1" /><line x1="498.8" x2="526.8" y1="460.0" y2="460.0" stroke="#ffffff" stroke-width="4" /><line x1="512.8" x2="512.8" y1="446.0" y2="474.0" stroke="#ffffff" stroke-width="4" /><circle cx="572.8" cy="460.0" r="4" fill="#16acff" /><line x1="572.8" x2="572.8" y1="460.0" y2="520.0" stroke="#16acff" stroke-width="3" /><rect x="552.8" y="500.0" width="40" height="40" rx="4" ry="4" stroke="#ffffff" stroke-width="0" fill="#16acff" fill-opacity="1" /><line x1="558.8" x2="586.8" y1="520.0" y2="520.0" stroke="#ffffff" stroke-width="4" /><line x1="572.8" x2="572.8" y1="506.0" y2="534.0" stroke="#ffffff" stroke-width="4" /></svg>